<svg xmlns="http://www.w3.org/2000/svg" xmlns:xlink="http://www.w3.org/1999/xlink" width="900" zoomAndPan="magnify" viewBox="0 0 675 225" height="300" preserveAspectRatio="xMidYMid meet" version="1.0"><defs><g/><clipPath id="4b9f6c4c90"><path d="M 92.609375 59.910156 L 195.359375 59.910156 L 195.359375 164.910156 L 92.609375 164.910156 Z M 92.609375 59.910156 " clip-rule="nonzero"/></clipPath></defs><g fill="#000000" fill-opacity="1"><g transform="translate(16.781862, 140.625004)"><g><path d="M 55.78125 -85.703125 L 55.78125 -68.5625 L 25.765625 -68.5625 L 25.765625 -51.515625 L 53.5 -51.515625 L 53.5 -34.375 L 25.765625 -34.375 L 25.765625 0 L 6.234375 0 L 6.234375 -85.703125 Z M 55.78125 -85.703125 "/></g></g></g><g fill="#000000" fill-opacity="1"><g transform="translate(67.576426, 140.625004)"><g><path d="M 6.234375 0 L 6.234375 -53.28125 L 24.625 -53.28125 L 24.625 -45.59375 L 24.828125 -45.59375 C 24.960938 -45.875 25.1875 -46.222656 25.5 -46.640625 C 25.8125 -47.054688 26.484375 -47.78125 27.515625 -48.8125 C 28.554688 -49.851562 29.664062 -50.789062 30.84375 -51.625 C 32.019531 -52.457031 33.539062 -53.203125 35.40625 -53.859375 C 37.28125 -54.515625 39.191406 -54.84375 41.140625 -54.84375 C 43.140625 -54.84375 45.109375 -54.566406 47.046875 -54.015625 C 48.992188 -53.460938 50.414062 -52.910156 51.3125 -52.359375 L 52.765625 -51.515625 L 45.078125 -35.9375 C 42.796875 -37.875 39.613281 -38.84375 35.53125 -38.84375 C 33.3125 -38.84375 31.40625 -38.359375 29.8125 -37.390625 C 28.21875 -36.421875 27.09375 -35.242188 26.4375 -33.859375 C 25.78125 -32.472656 25.3125 -31.296875 25.03125 -30.328125 C 24.757812 -29.359375 24.625 -28.597656 24.625 -28.046875 L 24.625 0 Z M 6.234375 0 "/></g></g></g><g fill="#000000" fill-opacity="1"><g transform="translate(111.203625, 140.625004)"><g><path d="M 9.859375 -6.59375 C 4.878906 -12.03125 2.390625 -18.695312 2.390625 -26.59375 C 2.390625 -34.488281 4.878906 -41.171875 9.859375 -46.640625 C 14.847656 -52.109375 21.1875 -54.84375 28.875 -54.84375 C 35.9375 -54.84375 41.753906 -52.628906 46.328125 -48.203125 L 46.328125 -53.28125 L 64.71875 -53.28125 L 64.71875 0 L 46.53125 0 L 46.53125 -6.03125 L 46.328125 -6.03125 C 41.753906 -0.96875 35.9375 1.5625 28.875 1.5625 C 21.1875 1.5625 14.847656 -1.15625 9.859375 -6.59375 Z M 25.5 -35.625 C 23.113281 -33.269531 21.921875 -30.257812 21.921875 -26.59375 C 21.921875 -22.925781 23.0625 -19.929688 25.34375 -17.609375 C 27.625 -15.285156 30.632812 -14.125 34.375 -14.125 C 37.976562 -14.125 40.941406 -15.300781 43.265625 -17.65625 C 45.585938 -20.007812 46.75 -22.988281 46.75 -26.59375 C 46.75 -30.257812 45.550781 -33.269531 43.15625 -35.625 C 40.769531 -37.976562 37.84375 -39.15625 34.375 -39.15625 C 30.84375 -39.15625 27.882812 -37.976562 25.5 -35.625 Z M 25.5 -35.625 "/></g></g></g><g fill="#000000" fill-opacity="1"><g transform="translate(174.047697, 140.625004)"><g><path d="M 6.234375 0 L 6.234375 -53.28125 L 24.625 -53.28125 L 24.625 -47.671875 L 24.828125 -47.671875 C 29.609375 -52.453125 34.695312 -54.84375 40.09375 -54.84375 C 43.96875 -54.84375 47.601562 -54.046875 51 -52.453125 C 54.394531 -50.859375 56.957031 -48.398438 58.6875 -45.078125 C 64.09375 -51.585938 69.976562 -54.84375 76.34375 -54.84375 C 82.019531 -54.84375 86.898438 -53.25 90.984375 -50.0625 C 95.078125 -46.882812 97.125 -41.898438 97.125 -35.109375 L 97.125 0 L 78.734375 0 L 78.734375 -30.125 C 78.734375 -32.957031 77.953125 -35.328125 76.390625 -37.234375 C 74.835938 -39.140625 72.503906 -40.09375 69.390625 -40.09375 C 66.691406 -40.09375 64.628906 -39.28125 63.203125 -37.65625 C 61.785156 -36.03125 61.007812 -34.070312 60.875 -31.78125 L 60.875 0 L 42.484375 0 L 42.484375 -30.125 C 42.484375 -32.957031 41.703125 -35.328125 40.140625 -37.234375 C 38.585938 -39.140625 36.253906 -40.09375 33.140625 -40.09375 C 30.296875 -40.09375 28.164062 -39.207031 26.75 -37.4375 C 25.332031 -35.675781 24.625 -33.582031 24.625 -31.15625 L 24.625 0 Z M 6.234375 0 "/></g></g></g><g fill="#000000" fill-opacity="1"><g transform="translate(268.262014, 140.625004)"><g><path d="M 60.140625 -24.09375 L 21.5 -24.09375 C 21.5 -20.351562 22.707031 -17.582031 25.125 -15.78125 C 27.550781 -13.988281 30.1875 -13.09375 33.03125 -13.09375 C 36.007812 -13.09375 38.363281 -13.488281 40.09375 -14.28125 C 41.820312 -15.082031 43.796875 -16.660156 46.015625 -19.015625 L 59.3125 -12.359375 C 53.769531 -3.078125 44.5625 1.5625 31.6875 1.5625 C 23.644531 1.5625 16.75 -1.1875 11 -6.6875 C 5.257812 -12.195312 2.390625 -18.828125 2.390625 -26.578125 C 2.390625 -34.335938 5.257812 -40.988281 11 -46.53125 C 16.75 -52.070312 23.644531 -54.84375 31.6875 -54.84375 C 40.132812 -54.84375 47.003906 -52.398438 52.296875 -47.515625 C 57.597656 -42.640625 60.25 -35.664062 60.25 -26.59375 C 60.25 -25.34375 60.210938 -24.507812 60.140625 -24.09375 Z M 22.015625 -34.28125 L 42.28125 -34.28125 C 41.863281 -37.050781 40.769531 -39.179688 39 -40.671875 C 37.238281 -42.160156 34.972656 -42.90625 32.203125 -42.90625 C 29.148438 -42.90625 26.722656 -42.109375 24.921875 -40.515625 C 23.128906 -38.921875 22.160156 -36.84375 22.015625 -34.28125 Z M 22.015625 -34.28125 "/></g></g></g><g fill="#000000" fill-opacity="1"><g transform="translate(322.796085, 140.625004)"><g><path d="M 34.59375 -39.78125 C 31.125 -39.78125 28.144531 -38.5 25.65625 -35.9375 C 23.164062 -33.375 21.921875 -30.296875 21.921875 -26.703125 C 21.921875 -23.023438 23.164062 -19.90625 25.65625 -17.34375 C 28.144531 -14.78125 31.125 -13.5 34.59375 -13.5 C 36.25 -13.5 37.820312 -13.707031 39.3125 -14.125 C 40.800781 -14.539062 41.894531 -14.957031 42.59375 -15.375 L 43.53125 -16 L 49.75 -3.21875 C 49.269531 -2.875 48.597656 -2.441406 47.734375 -1.921875 C 46.867188 -1.398438 44.894531 -0.691406 41.8125 0.203125 C 38.726562 1.109375 35.421875 1.5625 31.890625 1.5625 C 24.066406 1.5625 17.191406 -1.1875 11.265625 -6.6875 C 5.347656 -12.195312 2.390625 -18.796875 2.390625 -26.484375 C 2.390625 -34.242188 5.347656 -40.910156 11.265625 -46.484375 C 17.191406 -52.054688 24.066406 -54.84375 31.890625 -54.84375 C 35.421875 -54.84375 38.675781 -54.425781 41.65625 -53.59375 C 44.632812 -52.769531 46.742188 -51.941406 47.984375 -51.109375 L 49.75 -49.859375 L 43.53125 -37.296875 C 41.238281 -38.953125 38.257812 -39.78125 34.59375 -39.78125 Z M 34.59375 -39.78125 "/></g></g></g><g fill="#000000" fill-opacity="1"><g transform="translate(365.696161, 140.625004)"><g><path d="M 9.859375 -6.59375 C 4.878906 -12.03125 2.390625 -18.695312 2.390625 -26.59375 C 2.390625 -34.488281 4.878906 -41.171875 9.859375 -46.640625 C 14.847656 -52.109375 21.1875 -54.84375 28.875 -54.84375 C 35.9375 -54.84375 41.753906 -52.628906 46.328125 -48.203125 L 46.328125 -53.28125 L 64.71875 -53.28125 L 64.71875 0 L 46.53125 0 L 46.53125 -6.03125 L 46.328125 -6.03125 C 41.753906 -0.96875 35.9375 1.5625 28.875 1.5625 C 21.1875 1.5625 14.847656 -1.15625 9.859375 -6.59375 Z M 25.5 -35.625 C 23.113281 -33.269531 21.921875 -30.257812 21.921875 -26.59375 C 21.921875 -22.925781 23.0625 -19.929688 25.34375 -17.609375 C 27.625 -15.285156 30.632812 -14.125 34.375 -14.125 C 37.976562 -14.125 40.941406 -15.300781 43.265625 -17.65625 C 45.585938 -20.007812 46.75 -22.988281 46.75 -26.59375 C 46.75 -30.257812 45.550781 -33.269531 43.15625 -35.625 C 40.769531 -37.976562 37.84375 -39.15625 34.375 -39.15625 C 30.84375 -39.15625 27.882812 -37.976562 25.5 -35.625 Z M 25.5 -35.625 "/></g></g></g><g fill="#000000" fill-opacity="1"><g transform="translate(428.540221, 140.625004)"><g><path d="M 29.390625 -54.84375 C 32.441406 -54.84375 35.457031 -54.492188 38.4375 -53.796875 C 41.414062 -53.109375 43.628906 -52.421875 45.078125 -51.734375 L 47.265625 -50.6875 L 41.234375 -38.640625 C 37.078125 -40.859375 33.128906 -41.96875 29.390625 -41.96875 C 27.316406 -41.96875 25.847656 -41.738281 24.984375 -41.28125 C 24.117188 -40.832031 23.6875 -39.988281 23.6875 -38.75 C 23.6875 -38.46875 23.71875 -38.1875 23.78125 -37.90625 C 23.851562 -37.632812 23.992188 -37.375 24.203125 -37.125 C 24.410156 -36.882812 24.597656 -36.675781 24.765625 -36.5 C 24.941406 -36.332031 25.238281 -36.144531 25.65625 -35.9375 C 26.070312 -35.726562 26.398438 -35.570312 26.640625 -35.46875 C 26.878906 -35.363281 27.273438 -35.207031 27.828125 -35 C 28.390625 -34.789062 28.804688 -34.632812 29.078125 -34.53125 C 29.359375 -34.425781 29.828125 -34.269531 30.484375 -34.0625 C 31.140625 -33.863281 31.644531 -33.726562 32 -33.65625 C 34.144531 -33.03125 36.007812 -32.335938 37.59375 -31.578125 C 39.1875 -30.816406 40.867188 -29.773438 42.640625 -28.453125 C 44.410156 -27.140625 45.78125 -25.476562 46.75 -23.46875 C 47.71875 -21.46875 48.203125 -19.1875 48.203125 -16.625 C 48.203125 -4.5 39.785156 1.5625 22.953125 1.5625 C 19.148438 1.5625 15.53125 0.972656 12.09375 -0.203125 C 8.664062 -1.378906 6.191406 -2.554688 4.671875 -3.734375 L 2.390625 -5.609375 L 9.875 -18.171875 C 10.425781 -17.691406 11.148438 -17.125 12.046875 -16.46875 C 12.953125 -15.8125 14.582031 -14.910156 16.9375 -13.765625 C 19.289062 -12.617188 21.332031 -12.046875 23.0625 -12.046875 C 26.863281 -12.046875 28.765625 -13.328125 28.765625 -15.890625 C 28.765625 -17.066406 28.28125 -17.984375 27.3125 -18.640625 C 26.34375 -19.296875 24.695312 -20.039062 22.375 -20.875 C 20.0625 -21.707031 18.25 -22.472656 16.9375 -23.171875 C 13.613281 -24.898438 10.976562 -26.851562 9.03125 -29.03125 C 7.09375 -31.21875 6.125 -34.109375 6.125 -37.703125 C 6.125 -43.109375 8.21875 -47.316406 12.40625 -50.328125 C 16.601562 -53.335938 22.265625 -54.84375 29.390625 -54.84375 Z M 29.390625 -54.84375 "/></g></g></g><g fill="#000000" fill-opacity="1"><g transform="translate(471.544141, 140.625004)"><g><path d="M 9.34375 -53.28125 L 9.34375 -73.125 L 27.734375 -73.125 L 27.734375 -53.28125 L 38.953125 -53.28125 L 38.953125 -39.265625 L 27.734375 -39.265625 L 27.734375 -22.328125 C 27.734375 -17.410156 29.117188 -14.953125 31.890625 -14.953125 C 32.578125 -14.953125 33.300781 -15.085938 34.0625 -15.359375 C 34.832031 -15.640625 35.425781 -15.921875 35.84375 -16.203125 L 36.453125 -16.625 L 41.03125 -1.765625 C 37.082031 0.453125 32.582031 1.5625 27.53125 1.5625 C 24.0625 1.5625 21.082031 0.957031 18.59375 -0.25 C 16.101562 -1.46875 14.21875 -3.097656 12.9375 -5.140625 C 11.65625 -7.179688 10.734375 -9.328125 10.171875 -11.578125 C 9.617188 -13.828125 9.34375 -16.234375 9.34375 -18.796875 L 9.34375 -39.265625 L 1.65625 -39.265625 L 1.65625 -53.28125 Z M 9.34375 -53.28125 "/></g></g></g><g fill="#000000" fill-opacity="1"><g transform="translate(504.472225, 140.625004)"><g/></g></g><g fill="#000000" fill-opacity="1"><g transform="translate(524.727534, 140.625004)"><g><path d="M 49.75 -85.703125 L 84.34375 0 L 63.359375 0 L 57.03125 -17.140625 L 24.40625 -17.140625 L 18.078125 0 L -2.90625 0 L 31.6875 -85.703125 Z M 50.375 -34.28125 L 40.828125 -59.203125 L 40.609375 -59.203125 L 31.0625 -34.28125 Z M 50.375 -34.28125 "/></g></g></g><g fill="#000000" fill-opacity="1"><g transform="translate(598.062966, 140.625004)"><g><path d="M 25.765625 -85.703125 L 25.765625 0 L 6.234375 0 L 6.234375 -85.703125 Z M 25.765625 -85.703125 "/></g></g></g><g fill="#000000" fill-opacity="1"><g transform="translate(621.953925, 140.625004)"><g><path d="M 18.078125 -22.234375 C 21.398438 -22.234375 24.21875 -21.070312 26.53125 -18.75 C 28.851562 -16.425781 30.015625 -13.601562 30.015625 -10.28125 C 30.015625 -7.03125 28.851562 -4.242188 26.53125 -1.921875 C 24.21875 0.398438 21.398438 1.5625 18.078125 1.5625 C 14.816406 1.5625 12.023438 0.398438 9.703125 -1.921875 C 7.390625 -4.242188 6.234375 -7.03125 6.234375 -10.28125 C 6.234375 -13.601562 7.390625 -16.425781 9.703125 -18.75 C 12.023438 -21.070312 14.816406 -22.234375 18.078125 -22.234375 Z M 18.078125 -22.234375 "/></g></g></g><g clip-path="url(#4b9f6c4c90)"><path fill="#e4e1da" d="M 195.003906 111.675781 L 179.90625 111.675781 C 154.054688 106.082031 148.304688 100.3125 142.710938 74.421875 L 142.710938 59.910156 L 140.800781 59.910156 L 140.800781 74.578125 C 135.214844 100.335938 129.4375 106.09375 103.636719 111.675781 L 92.621094 111.675781 L 92.621094 113.589844 L 103.636719 113.589844 C 129.4375 119.171875 135.214844 124.929688 140.800781 150.691406 L 140.800781 165.082031 L 142.710938 165.082031 L 142.710938 150.84375 C 148.304688 124.953125 154.054688 119.183594 179.90625 113.589844 L 195.003906 113.589844 Z M 195.003906 111.675781 " fill-opacity="1" fill-rule="nonzero"/></g></svg>