<svg width="100" height="30" viewBox="0 0 100 30" fill="none" xmlns="http://www.w3.org/2000/svg">
<path d="M33.4182 23.6394C29.6213 23.6394 27 21.5583 27 17.9997C27 14.7747 29.1447 12.8047 33.307 12.8047H38.7085V11.8674C38.7085 9.78622 37.4058 8.72181 34.9116 8.72181C32.6557 8.72181 31.3847 9.53204 31.1305 11.216H27.4925C27.7626 8.16578 30.0503 5.68745 34.9434 5.68745C39.9953 5.68745 42.283 8.134 42.283 11.7879V19.2071C42.283 19.9378 42.6802 20.3191 43.3951 20.3191H44.1259V23.2582H42.3148C40.5832 23.2582 39.4552 22.6227 39.0263 21.2564H38.8038C37.6918 22.7657 35.976 23.6394 33.4182 23.6394ZM30.6063 17.9838C30.6063 19.779 32.1473 20.621 34.1967 20.621C37.0404 20.621 38.7085 19.0482 38.7085 16.2203V15.5372H33.6883C31.5118 15.5372 30.6063 16.5699 30.6063 17.9838Z" fill="#262626"/>
<path d="M46.5464 23.2582V6.08462H50.1368V23.2582H46.5464ZM46.5464 3.70161V0H50.1368V3.70161H46.5464Z" fill="#262626"/>
<path d="M53.4968 23.2582V6.08462H56.8966L57.1031 7.8957H57.4685C58.2311 6.54533 59.216 6.08462 60.6459 6.08462H63.2036V9.46849H59.9151C58.0722 9.46849 57.0872 10.4694 57.0872 12.3281V23.2582H53.4968Z" fill="#262626"/>
<path d="M65.3188 29.1521V6.08462H68.6709L68.8933 7.97514H69.1316C70.339 6.52944 72.1183 5.70334 74.1995 5.70334C78.7748 5.70334 81.8727 9.40494 81.8727 14.6952C81.8727 19.9696 78.7907 23.6553 74.2312 23.6553C72.1977 23.6553 70.4343 22.8769 69.2428 21.5742H68.9092V29.1521H65.3188ZM68.5438 14.6952C68.5438 18.1903 70.4184 20.4303 73.4528 20.4303C76.4554 20.4303 78.2665 18.2221 78.2665 14.6952C78.2665 11.1525 76.4236 8.92834 73.4528 8.92834C70.482 8.92834 68.5438 11.2001 68.5438 14.6952Z" fill="#262626"/>
<path d="M84.5876 23.2582V6.08462H87.9874L88.1939 7.8957H88.5593C89.3219 6.54533 90.3069 6.08462 91.7367 6.08462H94.2944V9.46849H91.0059C89.163 9.46849 88.178 10.4694 88.178 12.3281V23.2582H84.5876Z" fill="#262626"/>
<path d="M96.4096 23.2582V6.08462H100V23.2582H96.4096ZM96.4096 3.70161V0H100V3.70161H96.4096Z" fill="#262626"/>
<circle cx="10.5151" cy="7.98529" r="5.98529" fill="#B7B8C3"/>
<path fill-rule="evenodd" clip-rule="evenodd" d="M2.42647 12.2206C3.76657 12.2206 4.85294 13.307 4.85294 14.6471C4.85294 17.6615 7.3283 20.1471 10.4338 20.1471C13.5393 20.1471 16.0147 17.6615 16.0147 14.6471C16.0147 13.307 17.1011 12.2206 18.4412 12.2206C19.7813 12.2206 20.8676 13.307 20.8676 14.6471C20.8676 20.3881 16.173 25.0001 10.4338 25.0001C4.69467 25.0001 0 20.3881 0 14.6471C0 13.307 1.08637 12.2206 2.42647 12.2206Z" fill="#262626"/>
</svg>
